<svg xmlns="http://www.w3.org/2000/svg" width="1600" height="1000" viewBox="0 0 1600 1000">
<rect width="1600" height="1000" fill="#e9e8e1"/>
<g fill="none" stroke="#c8cabe" stroke-width="2"><path d="M0 700Q300 410 650 680T1600 540M0 760Q340 470 700 740T1600 600M0 820Q380 530 750 800T1600 660M0 880Q420 590 800 860T1600 720"/><rect x="64" y="64" width="1472" height="872"/></g>
<g fill="none" stroke="#9b8965" stroke-width="3"><path d="M735 450v-66l65-45 65 45v66zM715 394l85-59 85 59M785 450v-40h30v40"/></g>
<text x="800" y="525" text-anchor="middle" fill="#233a40" font-family="Arial,sans-serif" font-size="26" letter-spacing="7">SUSSEX HOUSE FARM</text>
<text x="800" y="572" text-anchor="middle" fill="#6c746b" font-family="Arial,sans-serif" font-size="16" letter-spacing="5">IMAGE TO FOLLOW</text>
</svg>
